<?xml version="1.0" encoding="UTF-8"?>
<!-- Generator: visioncortex VTracer 0.6.4 -->
<svg version="1.1" xmlns="http://www.w3.org/2000/svg" width="512" height="512">
<path d="M0 0 C4.29 3.37 8.16 7.13 12 11 C12.59 11.56 13.19 12.12 13.8 12.7 C24.95 24.15 29.98 42.49 30 58 C29.17 73.06 24.72 86 17 99 C27.07 90.62 33.62 82.36 38 70 C38.66 68.33 39.33 66.66 40 65 C42 66 42 66 42.84 68.23 C43.12 69.22 43.4 70.21 43.69 71.23 C44.01 72.36 44.33 73.49 44.66 74.65 C45.01 75.88 45.36 77.12 45.71 78.39 C46.08 79.69 46.45 80.98 46.81 82.27 C47.6 85.02 48.38 87.77 49.16 90.52 C51.18 97.66 53.24 104.8 55.3 111.93 C55.61 112.99 55.61 112.99 55.92 114.07 C60.79 130.88 66.13 147.51 72 164 C72.41 165.15 72.82 166.31 73.24 167.5 C81.93 191.71 91.29 216.93 110.26 235.17 C112 237 112 237 112 239 C112.55 239.23 113.11 239.47 113.68 239.71 C116.6 241.33 118.71 243.39 121.12 245.69 C143.15 266.14 172.36 276.66 201 284 C201 284.33 201 284.66 201 285 C130 287.14 68.75 249.79 14 209 C21.51 218.57 29.85 227.01 39 235 C40.6 236.48 42.21 237.96 43.81 239.44 C54.12 248.68 65.35 256.56 77 264 C77.6 264.39 78.2 264.77 78.82 265.17 C89.11 271.72 99.86 277.06 111 282 C112.09 282.48 113.17 282.97 114.29 283.46 C173.03 307.72 246.54 304.25 304.68 280.93 C310.55 278.47 316.29 275.79 322 273 C322.78 272.62 323.56 272.24 324.37 271.85 C343 262.74 359.97 251.11 376 238 C377.96 236.44 379.92 234.87 381.88 233.31 C383.25 232.21 384.63 231.11 386 230 C386 235.66 380.56 239.87 377 244 C376.33 244.79 375.65 245.57 374.96 246.38 C365 257.72 354.29 269.18 342 278 C341.42 278.42 340.85 278.83 340.25 279.26 C331.15 285.77 321.87 291.72 312 297 C311.39 297.33 310.79 297.66 310.16 298 C282.73 312.84 249.7 321.64 218.44 320.92 C216.42 320.89 214.39 320.86 212.37 320.83 C210.81 320.81 210.81 320.81 209.22 320.79 C191.41 320.57 175.12 321.19 157.76 325.37 C125.71 332.72 88.06 331.7 56 325 C55.09 324.81 54.18 324.63 53.24 324.43 C12.54 315.8 -23.17 295.69 -53 267 C-53.49 266.53 -53.98 266.06 -54.49 265.58 C-61.22 259.12 -67.22 252.31 -73 245 C-73.95 243.87 -73.95 243.87 -74.91 242.72 C-103.29 208.62 -124.92 161.66 -125.2 116.79 C-125.21 116.03 -125.22 115.28 -125.22 114.49 C-125.45 82.63 -125.45 82.63 -122 69 C-121.8 68.19 -121.6 67.39 -121.4 66.56 C-114.29 38.57 -99.32 12.46 -74.1 -2.75 C-50.91 -15.2 -22.03 -14.88 0 0 Z " fill="#00A9CE" transform="translate(125,97)"/>
</svg>
