<?xml version="1.0" encoding="UTF-8"?>
<!-- Generator: visioncortex VTracer 0.6.4 -->
<svg version="1.1" xmlns="http://www.w3.org/2000/svg" width="665" height="550">
<path d="M0 0 C219.45 0 438.9 0 665 0 C665 181.5 665 363 665 550 C445.55 550 226.1 550 0 550 C0 368.5 0 187 0 0 Z " fill="#008FA6" transform="translate(0,0)"/>
<path d="M0 0 C219.45 0 438.9 0 665 0 C665 181.5 665 363 665 550 C445.55 550 226.1 550 0 550 C0 368.5 0 187 0 0 Z M280.25 30.62 C279.26 30.88 278.28 31.13 277.26 31.39 C260.86 35.73 244.89 41.86 229.96 49.94 C227.86 51.08 225.74 52.19 223.62 53.3 C204.55 63.46 187.91 76.43 172 91 C170.97 91.93 169.94 92.85 168.91 93.78 C156.65 104.84 145.96 116.84 136 130 C135.56 130.57 135.13 131.14 134.68 131.72 C120.96 149.64 109.34 168.96 99 189 C98.25 190.45 98.25 190.45 97.48 191.93 C66.39 252.34 46.83 319.81 37.31 386.82 C37.03 388.81 36.74 390.79 36.45 392.77 C33.43 413.45 31.17 434.24 29.5 455.07 C29.38 456.58 29.26 458.1 29.13 459.61 C28.13 471.62 27.78 483.64 27.46 495.68 C27.42 497.36 27.37 499.05 27.33 500.73 C27.22 504.82 27.11 508.91 27 513 C78.57 513.17 130.15 513.33 181.72 513.42 C182.87 513.43 182.87 513.43 184.03 513.43 C200.62 513.46 217.2 513.49 233.79 513.51 C241.92 513.52 250.05 513.54 258.18 513.55 C259.4 513.55 259.4 513.55 260.64 513.55 C286.87 513.6 313.11 513.67 339.35 513.76 C366.31 513.86 393.27 513.92 420.23 513.94 C424.04 513.94 427.85 513.95 431.65 513.95 C432.4 513.95 433.15 513.95 433.92 513.95 C445.99 513.96 458.06 514.01 470.13 514.07 C482.25 514.13 494.38 514.15 506.51 514.14 C513.08 514.13 519.66 514.14 526.23 514.19 C532.24 514.24 538.25 514.24 544.27 514.21 C546.45 514.2 548.63 514.22 550.81 514.25 C561.91 514.87 561.91 514.87 571.77 510.87 C573.62 508.29 574.82 505.94 576 503 C576.93 501.33 577.88 499.66 578.85 498.01 C579.79 496.24 580.71 494.47 581.62 492.69 C582.13 491.71 582.64 490.74 583.16 489.73 C589.08 478.12 594.31 466.2 599.55 454.27 C600.79 451.48 602.06 448.7 603.36 445.94 C615.37 420.41 624.08 393.34 632.84 366.57 C634.53 361.42 636.24 356.28 637.97 351.14 C638.45 349.73 638.92 348.32 639.39 346.91 C640.06 344.91 640.74 342.91 641.41 340.91 C642.02 339.11 642.63 337.3 643.23 335.49 C643.58 334.47 643.92 333.46 644.27 332.41 C645.1 330.1 645.1 330.1 645 328 C644.22 328 643.45 328 642.65 327.99 C623.68 327.93 604.71 327.86 585.75 327.76 C576.57 327.72 567.4 327.68 558.23 327.65 C550.23 327.63 542.22 327.6 534.22 327.55 C529.99 327.53 525.76 327.51 521.53 327.5 C501.13 327.47 481.28 327.26 461.56 321.31 C460.7 321.06 459.84 320.8 458.95 320.54 C431.18 312.07 404.13 297.92 389.34 271.62 C379.67 252.72 376.27 231.04 382.68 210.49 C390.86 188.93 404.76 172.21 425.62 162.21 C445.42 153.42 466.32 150.83 487 158 C500.04 163.14 510.37 170.87 520 181 C520.66 181.66 521.32 182.32 522 183 C523.33 158.68 515.46 136.13 504 115 C503.26 113.63 503.26 113.63 502.51 112.23 C496.18 101.15 487.74 91.25 479 82 C478.32 81.26 477.63 80.53 476.93 79.77 C444.5 45.97 393.9 25.78 347.4 24.73 C343.77 24.69 340.15 24.68 336.52 24.68 C333.77 24.69 331.01 24.66 328.26 24.64 C311.94 24.58 296.08 26.57 280.25 30.62 Z " fill="#0D1B2A" transform="translate(0,0)"/>
<path d="M0 0 C3.36 2.75 4.82 6.48 6.62 10.31 C13.11 23.6 21.06 35.07 31 46 C31.78 46.86 32.56 47.72 33.36 48.61 C43.88 59.68 56.8 68.44 70 76 C70.56 76.33 71.13 76.66 71.71 77 C113.47 101.2 161.73 104.45 208.79 104.51 C213.88 104.52 218.97 104.54 224.05 104.57 C233.64 104.61 243.23 104.64 252.82 104.66 C263.76 104.69 274.7 104.73 285.63 104.78 C308.09 104.87 330.54 104.94 353 105 C352.21 107.56 351.41 110.13 350.61 112.69 C350.39 113.41 350.17 114.13 349.94 114.88 C348.34 120 346.58 125.02 344.56 130 C343.95 131.53 343.34 133.06 342.73 134.59 C342.44 135.34 342.14 136.08 341.84 136.85 C341.07 138.82 340.35 140.79 339.64 142.78 C335.37 154.75 329.95 166.15 324.56 177.64 C323.05 180.89 321.57 184.15 320.09 187.41 C315.97 196.53 311.83 205.63 307.19 214.5 C306.85 215.15 306.51 215.8 306.17 216.47 C305.16 218.35 304.09 220.17 303 222 C302.6 222.68 302.21 223.37 301.8 224.07 C298.25 229.54 298.25 229.54 294.99 230.74 C292.56 231.02 290.24 231.04 287.8 230.98 C286.41 231 286.41 231 285 231.01 C281.9 231.03 278.8 231 275.7 230.96 C273.46 230.97 271.22 230.97 268.98 230.98 C262.81 231 256.65 230.97 250.48 230.93 C244.52 230.9 238.55 230.9 232.59 230.91 C220.39 230.92 208.19 230.89 195.99 230.85 C183.91 230.8 171.83 230.77 159.75 230.76 C158.62 230.76 158.62 230.76 157.47 230.76 C153.66 230.75 149.84 230.75 146.03 230.75 C119.01 230.73 92 230.68 64.98 230.6 C38.73 230.53 12.49 230.47 -13.76 230.44 C-14.57 230.44 -15.38 230.44 -16.21 230.44 C-24.34 230.43 -32.46 230.42 -40.59 230.41 C-57.14 230.39 -73.69 230.36 -90.24 230.34 C-91 230.34 -91.76 230.34 -92.54 230.34 C-143.36 230.26 -194.18 230.13 -245 230 C-244.88 225.12 -244.75 220.23 -244.62 215.35 C-244.57 213.69 -244.53 212.04 -244.49 210.38 C-244.14 196.5 -243.38 182.71 -242.19 168.88 C-242.01 166.75 -241.84 164.63 -241.66 162.51 C-240.58 149.63 -239.32 136.78 -237.81 123.94 C-237.69 122.85 -237.69 122.85 -237.56 121.74 C-236.19 110.19 -236.19 110.19 -235 109 C-232.51 108.57 -230.04 108.19 -227.54 107.84 C-225.95 107.6 -224.36 107.37 -222.77 107.14 C-221.93 107.01 -221.09 106.89 -220.23 106.76 C-137.08 94.41 -64.42 52.39 0 0 Z " fill="#FDCD0F" transform="translate(272,283)"/>
<path d="M0 0 C1.17 0 2.34 0.01 3.55 0.01 C23.57 0.27 41.87 4.44 59.88 13.31 C60.84 13.74 61.8 14.17 62.79 14.61 C80.34 22.66 94.8 36.48 106.88 51.31 C106.55 51.97 106.21 52.63 105.88 53.31 C105.33 52.76 104.78 52.2 104.21 51.62 C93.14 40.97 80.79 35.49 65.88 32.31 C64.65 32.02 64.65 32.02 63.41 31.73 C41.94 28.19 19.87 35.6 2.51 48 C-13.35 59.94 -25.26 77.37 -28.83 97.15 C-31.74 118.35 -27.14 138.45 -15.21 156.15 C-13.29 158.66 -11.27 160.99 -9.12 163.31 C-8.33 164.2 -7.53 165.09 -6.7 166.01 C13.99 187.96 44.63 198.76 73.88 203.31 C74.93 203.48 75.99 203.65 77.08 203.82 C83.66 204.63 90.3 204.49 96.92 204.52 C98.44 204.53 99.96 204.54 101.48 204.55 C105.58 204.57 109.68 204.6 113.78 204.62 C118.08 204.64 122.37 204.67 126.67 204.69 C134.79 204.74 142.92 204.79 151.04 204.83 C160.29 204.88 169.55 204.93 178.8 204.99 C197.82 205.1 216.85 205.21 235.88 205.31 C235.4 207.06 234.93 208.8 234.46 210.54 C234.2 211.51 233.94 212.48 233.67 213.48 C232.6 217.31 231.37 221.07 230.1 224.84 C229.85 225.59 229.59 226.35 229.33 227.13 C228.54 229.5 227.74 231.88 226.94 234.25 C226.41 235.83 225.88 237.42 225.35 239 C224.33 242.04 223.3 245.09 222.28 248.13 C220.7 252.82 219.16 257.52 217.63 262.22 C216.88 264.31 216.88 264.31 215.88 265.31 C213.56 265.42 211.26 265.46 208.94 265.45 C208.21 265.46 207.48 265.46 206.72 265.46 C204.24 265.47 201.76 265.47 199.28 265.47 C197.51 265.48 195.74 265.48 193.97 265.49 C189.14 265.5 184.31 265.51 179.47 265.51 C176.45 265.52 173.42 265.52 170.39 265.52 C160.89 265.54 151.4 265.55 141.9 265.55 C130.98 265.56 120.07 265.57 109.16 265.6 C100.7 265.62 92.24 265.63 83.78 265.64 C78.74 265.64 73.71 265.64 68.67 265.66 C5.03 265.88 -56.67 255.02 -104.12 209.31 C-104.77 208.72 -105.41 208.13 -106.07 207.53 C-119.48 194.86 -128.91 178.1 -136.12 161.31 C-140.3 164.44 -144.48 167.58 -148.65 170.72 C-179.99 194.34 -212.01 215.65 -247.12 233.31 C-247.99 233.75 -248.85 234.19 -249.74 234.64 C-280.06 249.98 -312.72 260.41 -346.12 266.31 C-347.89 266.64 -349.65 266.96 -351.41 267.28 C-353 267.56 -354.59 267.85 -356.19 268.12 C-356.88 268.25 -357.58 268.37 -358.29 268.5 C-362.98 269.28 -367.4 269.41 -372.12 269.31 C-370.63 256.02 -368.81 242.81 -366.56 229.62 C-366.35 228.38 -366.14 227.13 -365.93 225.85 C-365.72 224.68 -365.52 223.51 -365.31 222.3 C-365.04 220.75 -365.04 220.75 -364.76 219.16 C-364.14 216.38 -363.26 213.92 -362.12 211.31 C-361.14 211.24 -360.15 211.17 -359.14 211.1 C-332.39 209.35 -332.39 209.35 -306.12 204.31 C-304.72 203.95 -304.72 203.95 -303.29 203.58 C-289.4 199.92 -276.15 195.37 -263.12 189.31 C-262.45 189 -261.78 188.69 -261.08 188.37 C-238.16 177.71 -216.53 163.69 -198.12 146.31 C-196.9 145.27 -195.67 144.22 -194.44 143.19 C-185.03 134.99 -176.13 125.88 -168.12 116.31 C-166.75 114.7 -165.36 113.09 -163.98 111.49 C-161.36 108.43 -158.74 105.37 -156.12 102.31 C-147.65 92.4 -139.16 82.52 -130.41 72.85 C-128.99 71.27 -127.58 69.69 -126.18 68.09 C-115.2 55.57 -103.42 43.38 -90.12 33.31 C-88.72 32.2 -88.72 32.2 -87.29 31.06 C-79.97 25.37 -72.32 20.61 -64.12 16.31 C-63.48 15.97 -62.84 15.63 -62.18 15.28 C-53.84 10.93 -45.43 7.55 -36.38 4.94 C-35.14 4.58 -35.14 4.58 -33.87 4.21 C-22.68 1.17 -11.58 -0.06 0 0 Z " fill="#FFFFFF" transform="translate(409.125,122.6875)"/>
<path d="M0 0 C29.02 11.59 55.95 17 87.12 17.09 C89.07 17.1 91.03 17.11 92.98 17.12 C98.25 17.15 103.52 17.17 108.8 17.19 C114.32 17.21 119.84 17.24 125.36 17.27 C135.8 17.32 146.24 17.36 156.68 17.41 C168.57 17.46 180.46 17.51 192.35 17.57 C216.8 17.68 241.25 17.79 265.7 17.89 C265.23 19.32 264.75 20.76 264.28 22.19 C264.02 22.99 263.75 23.79 263.48 24.61 C262.51 27.44 261.35 30.14 260.1 32.86 C259.61 33.92 259.12 34.97 258.62 36.06 C258.11 37.16 257.6 38.26 257.07 39.39 C256.28 41.1 256.28 41.1 255.46 42.85 C252.36 49.47 249.21 56.04 245.82 62.51 C245.49 63.16 245.16 63.8 244.82 64.46 C243.83 66.31 242.78 68.09 241.7 69.89 C241.3 70.57 240.91 71.25 240.5 71.95 C236.95 77.43 236.95 77.43 233.68 78.63 C231.26 78.91 228.94 78.93 226.5 78.87 C225.57 78.88 224.65 78.89 223.7 78.9 C220.6 78.92 217.5 78.89 214.4 78.85 C212.16 78.85 209.92 78.86 207.68 78.87 C201.51 78.89 195.35 78.86 189.18 78.82 C183.22 78.79 177.25 78.79 171.29 78.8 C159.09 78.81 146.89 78.78 134.69 78.74 C122.61 78.69 110.53 78.66 98.45 78.65 C97.32 78.65 97.32 78.65 96.17 78.65 C92.36 78.64 88.54 78.64 84.73 78.64 C57.71 78.62 30.69 78.57 3.68 78.49 C-22.57 78.42 -48.82 78.36 -75.06 78.33 C-75.87 78.33 -76.68 78.33 -77.52 78.33 C-85.64 78.32 -93.76 78.3 -101.89 78.29 C-118.44 78.27 -134.99 78.25 -151.54 78.23 C-152.3 78.23 -153.06 78.23 -153.84 78.22 C-204.66 78.15 -255.48 78.02 -306.3 77.89 C-306.18 73.03 -306.06 68.18 -305.93 63.32 C-305.89 61.67 -305.85 60.03 -305.81 58.38 C-305.47 44.5 -304.65 30.72 -303.3 16.89 C-302.72 16.89 -302.13 16.9 -301.52 16.9 C-295.33 16.95 -289.13 16.98 -282.93 17 C-280.63 17.01 -278.32 17.02 -276.02 17.04 C-259.2 17.16 -242.62 16.85 -226.11 13.2 C-224.95 12.95 -224.95 12.95 -223.77 12.69 C-207.99 9.1 -192.89 3.83 -177.86 -2.11 C-117.19 -26.09 -60.27 -24.12 0 0 Z " fill="#FFFFFF" transform="translate(333.302001953125,435.110595703125)"/>
<path d="M0 0 C0.62 1.81 0.62 1.81 1 4 C0.01 5.49 0.01 5.49 -1 7 C-1.66 7 -2.32 7 -3 7 C-3.26 7.69 -3.52 8.37 -3.79 9.08 C-5.16 12.4 -6.76 15.57 -8.41 18.76 C-8.73 19.39 -9.06 20.03 -9.39 20.68 C-10.08 22 -10.76 23.33 -11.45 24.66 C-12.5 26.69 -13.55 28.72 -14.59 30.76 C-15.26 32.05 -15.93 33.34 -16.59 34.64 C-17.5 36.4 -17.5 36.4 -18.43 38.19 C-20 41 -20 41 -22 43 C-21.42 39.61 -20.6 36.81 -19.07 33.73 C-18.67 32.93 -18.27 32.13 -17.86 31.31 C-17.43 30.47 -17 29.62 -16.56 28.75 C-16.12 27.88 -15.68 27 -15.23 26.1 C-3.91 3.91 -3.91 3.91 0 0 Z " fill="#0C7995" transform="translate(115,161)"/>
<path d="M0 0 C18.31 0.5 18.31 0.5 37 1 C37 1.33 37 1.66 37 2 C32.05 2.17 27.1 2.33 22.16 2.48 C20.47 2.54 18.79 2.59 17.1 2.65 C14.69 2.73 12.27 2.81 9.85 2.88 C9.1 2.91 8.34 2.93 7.56 2.96 C2.23 3.11 2.23 3.11 0 2 C0 1.34 0 0.68 0 0 Z " fill="#0D1B2A" transform="translate(307,23)"/>
<path d="M0 0 C4.6 4.1 7.33 8.61 10.25 14 C10.7 14.79 11.14 15.59 11.6 16.41 C13.7 20.23 15.54 23.59 16 28 C12.92 24.21 10.67 20 8.31 15.75 C7.9 15 7.48 14.26 7.05 13.49 C6.03 11.66 5.02 9.83 4 8 C3.34 8 2.68 8 2 8 C1.34 5.36 0.68 2.72 0 0 Z " fill="#107D95" transform="translate(494,101)"/>
<path d="M0 0 C0.33 0 0.66 0 1 0 C1 3.96 1 7.92 1 12 C0.34 12 -0.32 12 -1 12 C-1.33 13.32 -1.66 14.64 -2 16 C-2.22 14.56 -2.43 13.13 -2.62 11.69 C-2.74 10.89 -2.86 10.09 -2.98 9.26 C-3 7 -3 7 -1 4 C-0.37 1.89 -0.37 1.89 0 0 Z " fill="#FFFFFF" transform="translate(44,354)"/>
</svg>
