<?xml version="1.0" encoding="UTF-8"?>
<!-- Generator: visioncortex VTracer 0.6.4 -->
<svg version="1.1" xmlns="http://www.w3.org/2000/svg" width="512" height="512">
<path d="M0 0 C1.47 0 2.93 0 4.4 0 C8.23 0.01 12.06 0.02 15.9 0.03 C20.51 0.04 25.12 0.05 29.74 0.05 C36.72 0.06 43.7 0.08 50.68 0.1 C50.68 10 50.68 19.9 50.68 30.1 C35.83 30.1 20.98 30.1 5.68 30.1 C5.68 54.85 5.68 79.6 5.68 105.1 C20.53 105.1 35.38 105.1 50.68 105.1 C50.68 115 50.68 124.9 50.68 135.1 C35.83 135.1 20.98 135.1 5.68 135.1 C5.68 145 5.68 154.9 5.68 165.1 C102.37 165.1 199.06 165.1 298.68 165.1 C298.68 190.67 297.96 212.41 279.81 231.07 C278.45 232.43 277.07 233.76 275.68 235.1 C274.98 235.84 274.27 236.57 273.54 237.33 C265.02 245.73 249.9 254.1 237.68 254.1 C237.55 254.97 237.55 254.97 237.42 255.86 C234.16 274.88 223.07 291.39 207.41 302.52 C198.49 308.26 188.42 313.35 177.68 314.1 C177.55 314.97 177.55 314.97 177.42 315.86 C175.93 324.54 172.96 332.64 168.25 340.1 C167.73 341.09 167.21 342.08 166.68 343.1 C167.77 346.13 169.47 348.12 171.74 350.36 C172.66 351.28 172.66 351.28 173.61 352.22 C174.28 352.88 174.94 353.53 175.63 354.21 C176.32 354.89 177.01 355.58 177.73 356.28 C179.94 358.48 182.15 360.66 184.37 362.85 C186.57 365.02 188.77 367.19 190.96 369.37 C192.33 370.72 193.69 372.07 195.06 373.41 C198.12 376.44 201.06 379.49 203.84 382.76 C207.96 387.49 212.38 391.89 216.85 396.3 C217.74 397.18 218.63 398.06 219.55 398.97 C221.46 400.87 223.39 402.77 225.31 404.67 C228.34 407.68 231.38 410.69 234.41 413.7 C235.45 414.74 236.49 415.77 237.53 416.81 C238.05 417.32 238.57 417.84 239.11 418.37 C246.15 425.38 253.2 432.37 260.26 439.36 C265.05 444.08 269.82 448.82 274.58 453.56 C277.1 456.07 279.62 458.57 282.15 461.07 C284.97 463.84 287.76 466.63 290.55 469.42 C291.82 470.65 291.82 470.65 293.11 471.91 C293.86 472.67 294.62 473.43 295.4 474.22 C296.06 474.87 296.72 475.53 297.41 476.21 C298.68 478.1 298.68 478.1 298.55 480.15 C297.05 483.51 294.34 485.88 291.75 488.41 C291.16 488.99 290.57 489.57 289.96 490.16 C273.51 506.04 254.51 512.77 231.89 512.57 C213.88 512.06 196.78 505.73 183.68 493.1 C181.54 490.1 179.7 487.01 177.84 483.83 C166.58 464.65 150.34 445.31 128.68 438.1 C90.3 429.19 46.6 433.82 7.61 436.19 C-7.42 437.08 -21.51 437.12 -36.32 434.1 C-37.43 433.89 -38.55 433.68 -39.7 433.46 C-42.11 432.99 -44.49 432.44 -46.88 431.85 C-47.73 431.64 -48.58 431.43 -49.46 431.22 C-64.36 427.43 -78.6 422.03 -92.32 415.1 C-92.99 414.77 -93.66 414.43 -94.35 414.09 C-109.61 406.5 -123.42 397.26 -136.32 386.1 C-137.1 385.43 -137.88 384.76 -138.68 384.07 C-141.27 381.79 -143.8 379.46 -146.32 377.1 C-146.87 376.57 -147.43 376.05 -148 375.51 C-167.71 356.85 -182.91 334.69 -194.32 310.1 C-194.82 309.04 -195.33 307.99 -195.86 306.91 C-206.72 283.22 -213.37 256.11 -213.52 229.99 C-213.53 229.15 -213.53 228.31 -213.54 227.44 C-213.56 224.74 -213.56 222.05 -213.57 219.35 C-213.57 218.43 -213.57 217.5 -213.57 216.56 C-213.55 203.17 -213.14 190.23 -210.32 177.1 C-210.07 175.87 -210.07 175.87 -209.83 174.62 C-205.7 153.84 -198.53 133.66 -188.32 115.1 C-187.7 113.95 -187.09 112.8 -186.46 111.61 C-158.23 60.15 -109.83 23.73 -53.98 7.12 C-36.25 2.12 -18.38 -0.07 0 0 Z " fill="#00778B" transform="translate(213.31640625,-0.09765625)"/>
<path d="M0 0 C1.47 0 2.93 0 4.4 0 C8.23 0.01 12.06 0.02 15.9 0.03 C20.51 0.04 25.12 0.05 29.74 0.05 C36.72 0.06 43.7 0.08 50.68 0.1 C50.68 10 50.68 19.9 50.68 30.1 C35.83 30.1 20.98 30.1 5.68 30.1 C5.68 44.95 5.68 59.8 5.68 75.1 C1.99 75.16 -1.7 75.22 -5.5 75.29 C-20.11 75.78 -31.23 78.99 -42.32 89.1 C-51.73 99.65 -54.2 110.79 -53.7 124.55 C-52.98 135.63 -47.6 145.78 -39.32 153.1 C-38.78 153.58 -38.24 154.06 -37.68 154.56 C-28.09 162.48 -18.44 164.39 -6.35 164.73 C-5.29 164.77 -4.22 164.81 -3.13 164.85 C-0.52 164.94 2.08 165.02 4.68 165.1 C4.82 191.41 4.95 217.72 5.07 244.03 C5.13 256.25 5.19 268.47 5.26 280.7 C5.79 385.88 5.79 385.88 5.68 437.1 C2.31 437.11 -1.07 437.12 -4.45 437.13 C-5.88 437.13 -5.88 437.13 -7.33 437.14 C-13.58 437.15 -19.65 436.94 -25.82 435.91 C-26.67 435.78 -27.52 435.64 -28.4 435.51 C-50.73 431.85 -72.11 425.31 -92.32 415.1 C-92.99 414.77 -93.66 414.43 -94.35 414.09 C-109.61 406.5 -123.42 397.26 -136.32 386.1 C-137.1 385.43 -137.88 384.76 -138.68 384.07 C-141.27 381.79 -143.8 379.46 -146.32 377.1 C-146.87 376.57 -147.43 376.05 -148 375.51 C-167.71 356.85 -182.91 334.69 -194.32 310.1 C-194.82 309.04 -195.33 307.99 -195.86 306.91 C-206.72 283.22 -213.37 256.11 -213.52 229.99 C-213.53 229.15 -213.53 228.31 -213.54 227.44 C-213.56 224.74 -213.56 222.05 -213.57 219.35 C-213.57 218.43 -213.57 217.5 -213.57 216.56 C-213.55 203.17 -213.14 190.23 -210.32 177.1 C-210.07 175.87 -210.07 175.87 -209.83 174.62 C-205.7 153.84 -198.53 133.66 -188.32 115.1 C-187.7 113.95 -187.09 112.8 -186.46 111.61 C-158.23 60.15 -109.83 23.73 -53.98 7.12 C-36.25 2.12 -18.38 -0.07 0 0 Z " fill="#00778B" transform="translate(213.31640625,-0.09765625)"/>
<path d="M0 0 C0 69.3 0 138.6 0 210 C-28.8 210 -54.05 198.96 -74.69 178.75 C-94.58 158.65 -104.45 132.2 -104.31 104.19 C-104.31 102.95 -104.3 101.71 -104.3 100.43 C-104.18 91.87 -103.69 84.17 -101 76 C-100.8 75.38 -100.6 74.76 -100.4 74.12 C-91.5 46.75 -72.75 24.24 -47.17 10.97 C-31.87 3.37 -17.05 0 0 0 Z " fill="#FFC72C" transform="translate(218,165)"/>
<path d="M0 0 C-2.85 19.23 -13.36 35.49 -28.65 47.27 C-37.73 53.73 -48.74 59.21 -60 60 C-60.13 60.87 -60.13 60.87 -60.26 61.77 C-62.44 74.45 -67.62 86.1 -77 95 C-77.61 95.79 -78.23 96.58 -78.86 97.4 C-89.77 110.67 -107.35 118.44 -124 121 C-127.47 121.25 -130.93 121.25 -134.41 121.23 C-135.39 121.23 -136.38 121.23 -137.4 121.23 C-140.62 121.23 -143.85 121.21 -147.07 121.2 C-149.32 121.19 -151.57 121.19 -153.82 121.19 C-159.72 121.18 -165.61 121.16 -171.51 121.14 C-177.53 121.12 -183.56 121.11 -189.59 121.1 C-201.39 121.08 -213.2 121.04 -225 121 C-225 120.67 -225 120.34 -225 120 C-224.03 119.88 -223.06 119.75 -222.06 119.62 C-203.04 116.84 -185.17 107 -173.21 91.7 C-166.9 82.85 -162.42 73.06 -160.14 62.44 C-159 60 -159 60 -156.27 58.79 C-155.19 58.53 -154.11 58.27 -153 58 C-130.38 50.16 -114.81 37.72 -104.29 16.05 C-102.64 12.14 -101.52 8.21 -100.54 4.08 C-100 2 -100 2 -99 1 C-96.14 0.87 -93.31 0.81 -90.44 0.79 C-89.1 0.78 -89.1 0.78 -87.72 0.76 C-84.74 0.73 -81.75 0.71 -78.77 0.68 C-76.7 0.66 -74.63 0.64 -72.56 0.62 C-67.1 0.57 -61.63 0.52 -56.17 0.47 C-50.63 0.42 -45.08 0.36 -39.54 0.31 C-31.43 0.23 -23.31 0.15 -15.2 0.08 C-14.36 0.07 -13.51 0.06 -12.64 0.05 C-8.42 0.02 -4.21 -0.01 0 0 Z " fill="#000000" transform="translate(451,254)"/>
<path d="M0 0 C16.11 -0.97 32.2 -1.69 48.33 -2.12 C55.83 -2.33 63.31 -2.62 70.79 -3.09 C124.6 -6.45 124.6 -6.45 143.9 10.51 C153.2 18.98 164.43 29.58 170 41 C169.61 45.62 166.22 48.23 163.06 51.31 C162.47 51.89 161.88 52.47 161.28 53.07 C144.83 68.94 125.82 75.67 103.21 75.47 C76.91 74.72 59.74 61.08 41.99 43.22 C40.77 42 39.55 40.78 38.34 39.56 C35.8 37.03 33.27 34.49 30.75 31.95 C27.5 28.69 24.25 25.43 21 22.18 C18.49 19.67 15.98 17.16 13.48 14.65 C12.28 13.45 11.08 12.25 9.88 11.05 C8.21 9.38 6.55 7.71 4.89 6.04 C4.39 5.54 3.89 5.04 3.38 4.53 C0 1.11 0 1.11 0 0 Z " fill="#000000" transform="translate(342,437)"/>
<path d="M0 0 C0 9.9 0 19.8 0 30 C14.85 30 29.7 30 45 30 C45 39.9 45 49.8 45 60 C30.15 60 15.3 60 0 60 C0 69.9 0 79.8 0 90 C-19.51 90.55 -32.78 90.44 -48 77 C-58.19 66.44 -60.5 53.81 -60.27 39.78 C-59.85 29.14 -55.05 20.82 -48 13 C-33.12 -0.6 -19.24 -0.54 0 0 Z " fill="#FFC72C" transform="translate(219,75)"/>
</svg>
