<?xml version="1.0" encoding="UTF-8"?>
<!-- Generator: visioncortex VTracer 0.6.4 -->
<svg version="1.1" xmlns="http://www.w3.org/2000/svg" width="500" height="500">
<path d="M0 0 C0.99 0 1.98 0 3 0 C3.4 0.9 3.4 0.9 3.81 1.81 C4.98 3.97 6.19 5.36 8 7 C7.34 7 6.68 7 6 7 C6 7.99 6 8.98 6 10 C6.99 10.5 6.99 10.5 8 11 C8.5 11.5 8.5 11.5 9 12 C9 11.01 9 10.02 9 9 C9.66 9 10.32 9 11 9 C11.33 7.68 11.66 6.36 12 5 C12.76 5.16 13.53 5.33 14.31 5.5 C17.04 6.09 17.04 6.09 20 6 C20.1 6.64 20.21 7.28 20.31 7.94 C20.54 8.62 20.77 9.3 21 10 C21.99 10.33 22.98 10.66 24 11 C23.67 12.98 23.34 14.96 23 17 C23.99 16.34 24.98 15.68 26 15 C26.99 15 27.98 15 29 15 C29.99 15.99 29.99 15.99 31 17 C32.32 17.7 33.65 18.37 35 19 C35 19.66 35 20.32 35 21 C36.65 21 38.3 21 40 21 C40 20.34 40 19.68 40 19 C43.3 19 46.6 19 50 19 C50 18.34 50 17.68 50 17 C48.51 16.5 48.51 16.5 47 16 C45 13 45 13 45 10 C50.69 9.42 53.32 12.18 57.6 15.57 C59.84 17.24 59.84 17.24 62.14 16.75 C62.75 16.5 63.37 16.25 64 16 C65.67 15.66 67.33 15.32 69 15 C69.33 14.01 69.66 13.02 70 12 C70.99 12.66 71.98 13.32 73 14 C73 14.66 73 15.32 73 16 C74.98 16.33 76.96 16.66 79 17 C79.99 15.51 79.99 15.51 81 14 C86.33 12.67 86.33 12.67 89 14 C89 13.34 89 12.68 89 12 C93 12 97 12 101 12 C103.2 11.07 103.2 11.07 105 10 C105 9.01 105 8.02 105 7 C106.32 6.67 107.64 6.34 109 6 C109 4.68 109 3.36 109 2 C109.66 2 110.32 2 111 2 C113.09 5.48 114.18 7.98 113.94 12 C113.78 16.4 115.13 18.6 118 22 C119.94 23.75 121.96 25.36 124 27 C124.99 28.49 124.99 28.49 126 30 C126.99 30.99 126.99 30.99 128 32 C128.39 33.65 128.72 35.32 129 37 C129.21 37.62 129.41 38.24 129.62 38.88 C130.18 42.02 129.54 44.88 129 48 C129.66 48 130.32 48 131 48 C131 48.66 131 49.32 131 50 C128 50 125 50 122 50 C122 49.34 122 48.68 122 48 C121.34 48 120.68 48 120 48 C118.27 45.45 118.27 45.45 116.38 42.12 C115.74 41.03 115.11 39.94 114.46 38.82 C113 36 113 36 113 34 C112.32 33.73 111.64 33.46 110.94 33.19 C108.82 32.33 106.74 31.38 104.69 30.38 C92.75 25.92 73.64 31.02 61.82 35.1 C59.18 35.94 57.59 36.14 54.88 35.94 C49.95 35.81 45.64 36.93 40.91 38.21 C38.42 38.89 35.96 39.44 33.44 39.94 C18.74 43.17 0.91 50.69 -11 60 C-16.79 62.2 -22.6 61.19 -28.16 58.92 C-30.75 57.63 -32.8 55.86 -35 54 C-37.3 52.59 -39.64 51.3 -42 50 C-42 49.34 -42 48.68 -42 48 C-42.64 47.73 -43.28 47.46 -43.94 47.19 C-46 46 -46 46 -47 43 C-48.32 42.31 -49.66 41.64 -51 41 C-52.35 39.55 -52.35 39.55 -53.62 37.88 C-56.87 33.9 -60.67 30.91 -64.73 27.8 C-68.43 24.87 -68.43 24.87 -70 23 C-69.69 20.81 -69.69 20.81 -69 19 C-68.34 19 -67.68 19 -67 19 C-67 19.66 -67 20.32 -67 21 C-66.38 21.08 -65.76 21.17 -65.12 21.25 C-63 22 -63 22 -61.75 24.06 C-61.5 24.7 -61.25 25.34 -61 26 C-60.34 26 -59.68 26 -59 26 C-59 25.01 -59 24.02 -59 23 C-56.62 23.31 -56.62 23.31 -54 24 C-53.34 24.99 -52.68 25.98 -52 27 C-50.68 26.67 -49.36 26.34 -48 26 C-47.01 28.64 -46.02 31.28 -45 34 C-45 31.69 -45 29.38 -45 27 C-43.68 26.67 -42.36 26.34 -41 26 C-41 26.66 -41 27.32 -41 28 C-39.07 29.15 -39.07 29.15 -37 29 C-36.01 29.33 -35.02 29.66 -34 30 C-33.5 32.97 -33.5 32.97 -33 36 C-32.34 36 -31.68 36 -31 36 C-31 36.66 -31 37.32 -31 38 C-31.66 38 -32.32 38 -33 38 C-32.5 38.45 -32.01 38.91 -31.5 39.38 C-30 41 -30 41 -30 43 C-29.34 43 -28.68 43 -28 43 C-28 42.34 -28 41.68 -28 41 C-27.4 41.01 -26.79 41.02 -26.17 41.04 C-25.37 41.04 -24.57 41.05 -23.75 41.06 C-22.57 41.08 -22.57 41.08 -21.36 41.1 C-19.09 41 -17.17 40.63 -15 40 C-15 38.35 -15 36.7 -15 35 C-14.01 34.67 -13.02 34.34 -12 34 C-11.34 34.99 -10.68 35.98 -10 37 C-5.53 31.47 -3 26.25 -3 19 C-3.6 19.23 -4.2 19.45 -4.81 19.69 C-5.53 19.79 -6.26 19.89 -7 20 C-8.75 18.56 -8.75 18.56 -10 17 C-8.69 15.5 -8.69 15.5 -7 14 C-6.01 14 -5.02 14 -4 14 C-4.5 12.02 -4.5 12.02 -5 10 C-4.01 10 -3.02 10 -2 10 C-2.31 9.07 -2.31 9.07 -2.62 8.12 C-2.75 7.42 -2.87 6.72 -3 6 C-2.34 5.34 -1.68 4.68 -1 4 C-0.36 1.93 -0.36 1.93 0 0 Z M16 11 C15.34 11.66 14.68 12.32 14 13 C16.97 13.5 16.97 13.5 20 14 C20 13.01 20 12.02 20 11 C18.68 11 17.36 11 16 11 Z " fill="#46B0B4" transform="translate(257,245)"/>
<path d="M0 0 C94.38 0 188.76 0 286 0 C286 2.64 286 5.28 286 8 C249.71 8.02 213.42 8.04 177.13 8.05 C172.85 8.05 168.57 8.05 164.29 8.05 C163.44 8.06 162.59 8.06 161.71 8.06 C147.89 8.06 134.08 8.07 120.26 8.08 C106.1 8.09 91.93 8.09 77.77 8.09 C69.02 8.1 60.27 8.1 51.53 8.11 C45.54 8.11 39.55 8.11 33.56 8.11 C30.09 8.11 26.63 8.11 23.17 8.12 C19.43 8.12 15.68 8.12 11.94 8.12 C10.83 8.12 9.73 8.13 8.59 8.13 C7.59 8.13 6.6 8.13 5.57 8.12 C4.71 8.12 3.84 8.12 2.95 8.12 C1 8 1 8 0 7 C0 4.69 0 2.38 0 0 Z " fill="#0397B3" transform="translate(107,309)"/>
<path d="M0 0 C3.3 0 6.6 0 10 0 C10 11.88 10 23.76 10 36 C10.66 36.33 11.32 36.66 12 37 C11.34 37 10.68 37 10 37 C10 39.97 10 42.94 10 46 C10.99 46.33 11.98 46.66 13 47 C12.34 47.66 11.68 48.32 11 49 C10.84 51.82 10.8 54.55 10.83 57.37 C10.83 59.07 10.82 60.78 10.81 62.49 C10.81 65.18 10.81 67.88 10.85 70.57 C10.87 73.17 10.86 75.77 10.83 78.37 C10.85 79.17 10.87 79.98 10.89 80.8 C10.85 83.07 10.75 84.86 10 87 C7.07 89.76 4.06 91 0 91 C0 60.97 0 30.94 0 0 Z " fill="#0296B1" transform="translate(174,212)"/>
<path d="M0 0 C3.3 0 6.6 0 10 0 C10 30.03 10 60.06 10 91 C2.29 89.72 2.29 89.72 0 87 C-0.38 84.1 -0.51 81.58 -0.45 78.67 C-0.45 77.82 -0.46 76.98 -0.46 76.1 C-0.45 73.29 -0.42 70.48 -0.39 67.68 C-0.38 65.73 -0.38 63.78 -0.37 61.84 C-0.36 56.71 -0.32 51.59 -0.27 46.46 C-0.23 41.24 -0.22 36.01 -0.2 30.78 C-0.15 20.52 -0.08 10.26 0 0 Z " fill="#0896AF" transform="translate(136,212)"/>
<path d="M0 0 C3.3 0 6.6 0 10 0 C10.15 12.11 10.3 24.22 10.44 36.33 C10.51 41.95 10.58 47.57 10.65 53.19 C10.72 58.61 10.78 64.03 10.84 69.45 C10.87 71.53 10.89 73.6 10.92 75.67 C10.96 78.56 10.99 81.46 11.02 84.35 C11.03 85.22 11.05 86.08 11.06 86.97 C11.08 88.98 11.05 90.99 11 93 C10.5 93.5 10.5 93.5 10 94 C7.03 94 4.06 94 1 94 C0.67 62.98 0.34 31.96 0 0 Z " fill="#0496B1" transform="translate(154,212)"/>
<path d="M0 0 C0.88 0 1.77 0 2.68 0 C3.61 -0 4.54 -0.01 5.5 -0.02 C8.58 -0.04 11.67 -0.04 14.76 -0.04 C16.9 -0.05 19.04 -0.06 21.18 -0.06 C25.67 -0.07 30.16 -0.08 34.65 -0.08 C40.41 -0.08 46.17 -0.1 51.93 -0.14 C56.35 -0.16 60.77 -0.17 65.19 -0.16 C67.32 -0.17 69.44 -0.18 71.56 -0.19 C74.53 -0.21 77.5 -0.2 80.47 -0.19 C81.35 -0.2 82.23 -0.22 83.14 -0.23 C89.09 -0.16 89.09 -0.16 92.25 2.2 C94.27 5.11 94.28 6.95 94.08 10.39 C93.7 12.29 93.7 12.29 92.14 14.73 C88.87 16.83 86.59 17.29 82.7 17.29 C79.83 15.73 79.83 15.73 77.7 13.29 C76.89 10.04 76.89 10.04 76.7 7.29 C79.18 6.8 79.18 6.8 81.7 6.29 C82.2 8.77 82.2 8.77 82.7 11.29 C85.18 10.8 85.18 10.8 87.7 10.29 C87.7 8.97 87.7 7.65 87.7 6.29 C57.34 6.29 26.98 6.29 -4.3 6.29 C-3.97 7.94 -3.64 9.59 -3.3 11.29 C-2.31 10.96 -1.32 10.63 -0.3 10.29 C0.44 8.28 0.44 8.28 0.7 6.29 C2.35 6.29 4 6.29 5.7 6.29 C6.39 7.98 6.39 7.98 6.7 10.29 C5.46 13.03 4.32 14.81 1.95 16.67 C-1.43 17.61 -3.92 17.15 -7.3 16.29 C-10.07 13.7 -11.11 11.08 -11.3 7.29 C-8.44 1.44 -6.52 0.07 0 0 Z " fill="#0C94AD" transform="translate(118.29669189453125,194.70672607421875)"/>
<path d="M0 0 C1.32 0.33 2.64 0.66 4 1 C3.34 1 2.68 1 2 1 C2 2.65 2 4.3 2 6 C95.06 6 188.12 6 284 6 C284 4.02 284 2.04 284 0 C284.66 0 285.32 0 286 0 C286 2.64 286 5.28 286 8 C249.71 8.02 213.42 8.04 177.13 8.05 C172.85 8.05 168.57 8.05 164.29 8.05 C163.44 8.06 162.59 8.06 161.71 8.06 C147.89 8.06 134.08 8.07 120.26 8.08 C106.1 8.09 91.93 8.09 77.77 8.09 C69.02 8.1 60.27 8.1 51.53 8.11 C45.54 8.11 39.55 8.11 33.56 8.11 C30.09 8.11 26.63 8.11 23.17 8.12 C19.43 8.12 15.68 8.12 11.94 8.12 C10.83 8.12 9.73 8.13 8.59 8.13 C7.59 8.13 6.6 8.13 5.57 8.12 C4.71 8.12 3.84 8.12 2.95 8.12 C1 8 1 8 0 7 C-0.04 4.67 -0.04 2.33 0 0 Z " fill="#238DA1" transform="translate(107,309)"/>
<path d="M0 0 C20.79 0 41.58 0 63 0 C63.5 0.99 63.5 0.99 64 2 C63.67 2.66 63.34 3.32 63 4 C42.54 4 22.08 4 1 4 C0.67 2.68 0.34 1.36 0 0 Z " fill="#0B97AE" transform="translate(128,204)"/>
<path d="M0 0 C1.22 0 1.22 0 2.47 0.01 C3.39 0.01 4.31 0.01 5.26 0.01 C6.26 0.01 7.26 0.02 8.29 0.02 C9.31 0.02 10.33 0.03 11.38 0.03 C14.65 0.03 17.93 0.05 21.2 0.06 C23.41 0.06 25.62 0.07 27.83 0.07 C33.26 0.08 38.7 0.1 44.13 0.12 C44.13 1.77 44.13 3.42 44.13 5.12 C28.95 5.12 13.77 5.12 -1.87 5.12 C-2.2 3.8 -2.53 2.48 -2.87 1.12 C-1.87 0.12 -1.87 0.12 0 0 Z " fill="#1693A7" transform="translate(138.86659240722656,185.87974548339844)"/>
<path d="M0 0 C3.3 0 6.6 0 10 0 C10 11.88 10 23.76 10 36 C10.66 36.33 11.32 36.66 12 37 C11.34 37 10.68 37 10 37 C10 39.97 10 42.94 10 46 C10.99 46.33 11.98 46.66 13 47 C12.34 47.66 11.68 48.32 11 49 C10.84 51.82 10.8 54.55 10.83 57.37 C10.83 59.07 10.82 60.78 10.81 62.49 C10.81 65.18 10.81 67.88 10.85 70.57 C10.87 73.17 10.86 75.77 10.83 78.37 C10.85 79.17 10.87 79.98 10.89 80.8 C10.85 83.07 10.75 84.86 10 87 C7.07 89.76 4.06 91 0 91 C0 60.97 0 30.94 0 0 Z M1 1 C1 29.71 1 58.42 1 88 C1.99 88 2.98 88 4 88 C4 87.34 4 86.68 4 86 C5.65 86 7.3 86 9 86 C9 57.95 9 29.9 9 1 C6.36 1 3.72 1 1 1 Z " fill="#2B97AA" transform="translate(174,212)"/>
<path d="M0 0 C2.97 0.5 2.97 0.5 6 1 C6 1.66 6 2.32 6 3 C6.99 3 7.98 3 9 3 C9 3.66 9 4.32 9 5 C9.66 5 10.32 5 11 5 C11 5.99 11 6.98 11 8 C10.38 7.79 9.76 7.59 9.12 7.38 C8.42 7.25 7.72 7.13 7 7 C6.34 7.66 5.68 8.32 5 9 C4.92 8.22 4.83 7.43 4.75 6.62 C4.27 3.85 4.27 3.85 1.94 2.69 C1.3 2.46 0.66 2.23 0 2 C0 1.34 0 0.68 0 0 Z " fill="#6DACB2" transform="translate(262,238)"/>
<path d="M0 0 C1.65 0 3.3 0 5 0 C5.93 2.61 6.15 3.64 5.06 6.25 C4.54 7.12 4.54 7.12 4 8 C2.75 5.51 3.22 4.59 4 2 C2.68 3.32 1.36 4.64 0 6 C-0.66 5.67 -1.32 5.34 -2 5 C-1.34 3.35 -0.68 1.7 0 0 Z " fill="#288C9C" transform="translate(119,201)"/>
<path d="M0 0 C0.99 0.33 1.98 0.66 3 1 C2.67 2.32 2.34 3.64 2 5 C0.68 5 -0.64 5 -2 5 C-2.33 3.68 -2.66 2.36 -3 1 C-2.01 1.33 -1.02 1.66 0 2 C0 1.34 0 0.68 0 0 Z " fill="#6FA0AF" transform="translate(363,239)"/>
<path d="M0 0 C0.99 0.33 1.98 0.66 3 1 C3 2.65 3 4.3 3 6 C2.34 6 1.68 6 1 6 C0.34 4.35 -0.32 2.7 -1 1 C-0.67 0.67 -0.34 0.34 0 0 Z " fill="#68A3AA" transform="translate(254,239)"/>
<path d="M0 0 C0.99 0.5 0.99 0.5 2 1 C1.01 1.5 1.01 1.5 0 2 C0 1.34 0 0.68 0 0 Z " fill="#50B9B8" transform="translate(390,285)"/>
<path d="" fill="#C4D2CF" transform="translate(0,0)"/>
<path d="" fill="#808080" transform="translate(0,0)"/>
</svg>
