<?xml version="1.0" encoding="UTF-8"?>
<!-- Generator: visioncortex VTracer 0.6.4 -->
<svg version="1.1" xmlns="http://www.w3.org/2000/svg" width="500" height="500">
<path d="M0 0 C165 0 330 0 500 0 C500 165 500 330 500 500 C335 500 170 500 0 500 C0 335 0 170 0 0 Z " fill="#FEFEFE" transform="translate(0,0)"/>
<path d="M0 0 C0.5 0.99 0.5 0.99 1 2 C1.66 2 2.32 2 3 2 C3 2.66 3 3.32 3 4 C3.66 4 4.32 4 5 4 C5 6.64 5 9.28 5 12 C5.66 12 6.32 12 7 12 C7.33 11.01 7.66 10.02 8 9 C8.66 9 9.32 9 10 9 C10.33 7.68 10.66 6.36 11 5 C13.31 5.33 15.62 5.66 18 6 C17.81 7.88 17.81 7.88 17 10 C14.44 11.25 14.44 11.25 12 12 C12.78 11.94 13.57 11.88 14.38 11.81 C15.24 11.87 16.11 11.94 17 12 C17.99 13.49 17.99 13.49 19 15 C21.06 15.72 21.06 15.72 23 16 C23 16.66 23 17.32 23 18 C23.99 18 24.98 18 26 18 C26.5 16.51 26.5 16.51 27 15 C28.32 16.32 29.64 17.64 31 19 C31.33 18.34 31.66 17.68 32 17 C32.99 18.49 32.99 18.49 34 20 C36.5 20.42 36.5 20.42 39 20 C39.66 19.34 40.32 18.68 41 18 C44.62 18.38 44.62 18.38 48 19 C48.5 17.51 48.5 17.51 49 16 C47.68 14.68 46.36 13.36 45 12 C45.33 11.01 45.66 10.02 46 9 C49.47 10.57 52.29 12.16 55.06 14.75 C57.72 17.29 57.72 17.29 60.56 16.88 C61.37 16.59 62.17 16.3 63 16 C63.93 15.81 64.86 15.63 65.81 15.44 C66.53 15.29 67.26 15.15 68 15 C68 14.01 68 13.02 68 12 C68.66 12 69.32 12 70 12 C70.33 12.66 70.66 13.32 71 14 C72.64 14.72 74.31 15.39 76 16 C76 16.66 76 17.32 76 18 C77.98 17.5 77.98 17.5 80 17 C80 16.01 80 15.02 80 14 C81.98 14.5 81.98 14.5 84 15 C84 14.34 84 13.68 84 13 C87.67 11.82 91.17 11.93 95 12 C95.33 12.99 95.66 13.98 96 15 C99.72 15.35 99.72 15.35 102.81 13.5 C103.4 12.76 103.4 12.76 104 12 C104.99 14.97 104.99 14.97 106 18 C106.99 17.67 107.98 17.34 109 17 C109 17.66 109 18.32 109 19 C109.66 19 110.32 19 111 19 C109.74 16.49 108.5 16.13 106 15 C106.33 14.01 106.66 13.02 107 12 C106.34 12 105.68 12 105 12 C105.33 11.01 105.66 10.02 106 9 C108 9 110 9 112 9 C112.33 12.63 112.66 16.26 113 20 C113.66 20 114.32 20 115 20 C115 21.32 115 22.64 115 24 C115.99 23.67 116.98 23.34 118 23 C118.12 23.58 118.25 24.15 118.38 24.75 C118.93 27.03 118.93 27.03 120.06 29.12 C121 31 121 31 121 33 C124.07 32.22 124.07 32.22 126 30 C125.67 31.98 125.34 33.96 125 36 C125.66 36 126.32 36 127 36 C128.16 40.26 127.76 43.68 127 48 C124.38 48.56 124.38 48.56 121 48 C117.86 44.47 115.72 40.3 113.44 36.19 C111.68 33.52 109.5 31.96 107 30 C107 29.34 107 28.68 107 28 C104.69 28 102.38 28 100 28 C100 27.34 100 26.68 100 26 C98.54 26.14 97.08 26.29 95.62 26.44 C94.81 26.52 94 26.6 93.16 26.68 C90.96 26.89 90.96 26.89 89 28 C87.51 28.27 86 28.51 84.5 28.72 C83.17 28.91 83.17 28.91 81.81 29.11 C79 29.5 79 29.5 76.19 29.89 C74.86 30.09 74.86 30.09 73.5 30.28 C72.69 30.4 71.87 30.51 71.03 30.63 C68.94 30.91 68.94 30.91 67 32 C65 32.04 63 32.04 61 32 C61 32.66 61 33.32 61 34 C59.88 34.02 59.88 34.02 58.75 34.04 C50.73 34.39 43.09 35.6 35.25 37.25 C34.29 37.44 33.34 37.63 32.35 37.83 C26.49 39.12 21.48 40.99 16.2 43.84 C12.92 45.57 9.48 46.75 6 48 C0.32 50.14 -4.41 53.1 -9.45 56.48 C-14.38 59.42 -19.37 59.52 -25 59 C-30.01 57.19 -34.21 53.86 -38.52 50.77 C-40.06 49.67 -41.62 48.59 -43.2 47.54 C-44.85 46.43 -46.43 45.23 -48 44 C-48 43.01 -48 42.02 -48 41 C-48.56 40.79 -49.11 40.59 -49.69 40.38 C-52.28 38.83 -53.72 36.94 -55.56 34.59 C-57.16 32.82 -58.84 31.59 -60.81 30.25 C-61.86 29.51 -62.92 28.76 -64 28 C-64 27.34 -64 26.68 -64 26 C-64.93 25.57 -64.93 25.57 -65.88 25.12 C-68 24 -68 24 -70 22 C-69.34 21.34 -68.68 20.68 -68 20 C-63.8 22.42 -59.92 25.16 -56 28 C-56.35 26.02 -56.35 26.02 -57 24 C-57.66 23.67 -58.32 23.34 -59 23 C-57.19 23.19 -57.19 23.19 -55 24 C-53.98 25.66 -52.98 27.32 -52 29 C-51.34 29.33 -50.68 29.66 -50 30 C-48 31 -48 31 -46.44 33.62 C-45.73 34.8 -45.73 34.8 -45 36 C-44.01 36 -43.02 36 -42 36 C-41.67 34.68 -41.34 33.36 -41 32 C-42.32 31.67 -43.64 31.34 -45 31 C-45 29.35 -45 27.7 -45 26 C-44.01 26 -43.02 26 -42 26 C-41.34 27.32 -40.68 28.64 -40 30 C-38.68 29.67 -37.36 29.34 -36 29 C-35.5 31.48 -35.5 31.48 -35 34 C-35.99 34.5 -35.99 34.5 -37 35 C-36.5 35.45 -36.01 35.91 -35.5 36.38 C-34 38 -34 38 -34 40 C-31.36 40.33 -28.72 40.66 -26 41 C-26 41.99 -26 42.98 -26 44 C-25.01 44.5 -25.01 44.5 -24 45 C-24 43.68 -24 42.36 -24 41 C-21.69 40.67 -19.38 40.34 -17 40 C-16.34 38.02 -15.68 36.04 -15 34 C-14.34 34 -13.68 34 -13 34 C-13 34.66 -13 35.32 -13 36 C-12.01 36.33 -11.02 36.66 -10 37 C-9.18 35.59 -8.37 34.17 -7.56 32.75 C-7.11 31.96 -6.66 31.17 -6.19 30.36 C-5.11 28.21 -4.47 26.35 -4 24 C-3.34 24 -2.68 24 -2 24 C-2 22.35 -2 20.7 -2 19 C-2.66 19 -3.32 19 -4 19 C-4.5 18.01 -4.5 18.01 -5 17 C-6.32 17 -7.64 17 -9 17 C-8.01 16.67 -7.02 16.34 -6 16 C-6.5 14.51 -6.5 14.51 -7 13 C-5.35 13 -3.7 13 -2 13 C-2.5 12.01 -2.5 12.01 -3 11 C-3.04 9 -3.04 7 -3 5 C-2.01 4.67 -1.02 4.34 0 4 C0 2.68 0 1.36 0 0 Z " fill="#46B3B7" transform="translate(258,246)"/>
<path d="M0 0 C93.72 0 187.44 0 284 0 C284 2.31 284 4.62 284 7 C190.28 7 96.56 7 0 7 C0 4.69 0 2.38 0 0 Z " fill="#0599B3" transform="translate(108,309)"/>
<path d="M0 0 C2.97 0 5.94 0 9 0 C9 30.69 9 61.38 9 93 C6.03 93 3.06 93 0 93 C0 62.31 0 31.62 0 0 Z " fill="#0297B2" transform="translate(155,212)"/>
<path d="M0 0 C2.97 0 5.94 0 9 0 C9 29.7 9 59.4 9 90 C4 89 4 89 0 87 C0 58.29 0 29.58 0 0 Z " fill="#0D9CB6" transform="translate(136,212)"/>
<path d="M0 0 C2.64 0 5.28 0 8 0 C8 28.71 8 57.42 8 87 C2 90 2 90 0 90 C0 60.3 0 30.6 0 0 Z " fill="#0097B2" transform="translate(175,212)"/>
<path d="M0 0 C0.9 -0 1.8 -0.01 2.73 -0.01 C5.7 -0.02 8.68 0.01 11.65 0.04 C13.72 0.05 15.79 0.05 17.86 0.05 C22.19 0.05 26.52 0.08 30.85 0.11 C36.4 0.16 41.96 0.17 47.51 0.18 C51.78 0.18 56.05 0.2 60.32 0.21 C62.37 0.22 64.42 0.23 66.47 0.24 C69.33 0.24 72.19 0.27 75.05 0.29 C75.89 0.29 76.74 0.29 77.61 0.29 C84.99 0.39 84.99 0.39 87.96 2.6 C90.3 6.12 90.54 7.46 89.96 11.6 C87.9 14.47 87.9 14.47 84.96 16.6 C80.9 17.24 78.92 17.27 75.52 14.91 C73.7 12.22 73.6 10.79 73.96 7.6 C75.28 7.6 76.6 7.6 77.96 7.6 C78.95 9.58 78.95 9.58 79.96 11.6 C82.43 11.1 82.43 11.1 84.96 10.6 C84.46 8.62 84.46 8.62 83.96 6.6 C53.27 6.6 22.58 6.6 -9.04 6.6 C-8.71 8.25 -8.38 9.9 -8.04 11.6 C-6.39 11.27 -4.74 10.94 -3.04 10.6 C-2.71 9.61 -2.38 8.62 -2.04 7.6 C-0.72 7.6 0.6 7.6 1.96 7.6 C1.64 10.5 1.34 12.92 -0.1 15.47 C-3.29 17.33 -6.52 17.35 -10.04 16.6 C-13.03 14.06 -13.88 12.44 -14.6 8.6 C-13.07 0.42 -6.99 -0.12 0 0 Z " fill="#159FB8" transform="translate(122.041259765625,194.400634765625)"/>
<path d="M0 0 C20.46 0 40.92 0 62 0 C62 1.32 62 2.64 62 4 C41.54 4 21.08 4 0 4 C0 2.68 0 1.36 0 0 Z " fill="#119DB7" transform="translate(129,204)"/>
<path d="M0 0 C15.18 0 30.36 0 46 0 C46 0.99 46 1.98 46 3 C30.82 3 15.64 3 0 3 C0 2.01 0 1.02 0 0 Z " fill="#0097B2" transform="translate(137,187)"/>
<path d="M0 0 C0.99 0 1.98 0 3 0 C3.66 1.32 4.32 2.64 5 4 C6.32 3.67 7.64 3.34 9 3 C9.33 4.65 9.66 6.3 10 8 C9.01 8 8.02 8 7 8 C7 8.66 7 9.32 7 10 C6.34 10 5.68 10 5 10 C4.67 10.66 4.34 11.32 4 12 C2.88 8.25 2.88 8.25 4 6 C2.68 5.67 1.36 5.34 0 5 C0 3.35 0 1.7 0 0 Z " fill="#93D2D4" transform="translate(213,272)"/>
<path d="M0 0 C0.66 0 1.32 0 2 0 C2 0.99 2 1.98 2 3 C2.66 3 3.32 3 4 3 C4 3.99 4 4.98 4 6 C5.32 6.66 6.64 7.32 8 8 C8 8.66 8 9.32 8 10 C5.69 9.81 5.69 9.81 3 9 C1.19 6.44 1.19 6.44 0 4 C-0.99 5.49 -0.99 5.49 -2 7 C-3.65 6.67 -5.3 6.34 -7 6 C-7 5.34 -7 4.68 -7 4 C-5.35 4 -3.7 4 -2 4 C-1.34 2.68 -0.68 1.36 0 0 Z " fill="#C4E6E8" transform="translate(361,255)"/>
<path d="M0 0 C0.66 0 1.32 0 2 0 C2 1.65 2 3.3 2 5 C2.99 5 3.98 5 5 5 C4.67 6.65 4.34 8.3 4 10 C3.01 10 2.02 10 1 10 C0.34 9.34 -0.32 8.68 -1 8 C-3.58 7.83 -3.58 7.83 -6 8 C-4 5 -4 5 -1.88 4.31 C-1.26 4.21 -0.64 4.11 0 4 C0 2.68 0 1.36 0 0 Z " fill="#BEE4E5" transform="translate(275,251)"/>
<path d="M0 0 C2 1 2 1 2.81 3 C3.86 5.28 3.86 5.28 6.62 5.75 C7.41 5.83 8.19 5.92 9 6 C9 7.65 9 9.3 9 11 C4.25 10.25 4.25 10.25 2 8 C2 7.01 2 6.02 2 5 C1.34 5 0.68 5 0 5 C-0.56 3.06 -0.56 3.06 -1 1 C-0.67 0.67 -0.34 0.34 0 0 Z " fill="#C6E7E9" transform="translate(208,272)"/>
<path d="M0 0 C0.29 0.64 0.58 1.28 0.88 1.94 C1.83 4.15 1.83 4.15 4 5 C3.67 6.32 3.34 7.64 3 9 C1.68 9 0.36 9 -1 9 C-1.66 8.34 -2.32 7.68 -3 7 C-2.67 6.34 -2.34 5.68 -2 5 C-2.99 4.67 -3.98 4.34 -5 4 C-3.35 3.67 -1.7 3.34 0 3 C0 2.01 0 1.02 0 0 Z " fill="#C7E8E9" transform="translate(367,248)"/>
<path d="M0 0 C2.11 2.89 3 4.38 3 8 C2.01 8 1.02 8 0 8 C0 7.34 0 6.68 0 6 C-0.66 5.67 -1.32 5.34 -2 5 C-2.33 4.34 -2.66 3.68 -3 3 C-3.66 2.34 -4.32 1.68 -5 1 C-3 0 -3 0 0 0 Z " fill="#C5E7E8" transform="translate(379,271)"/>
<path d="M0 0 C0.33 1.32 0.66 2.64 1 4 C-1.64 4.33 -4.28 4.66 -7 5 C-7 3.68 -7 2.36 -7 1 C-2.25 0 -2.25 0 0 0 Z " fill="#8DD0D2" transform="translate(241,286)"/>
<path d="M0 0 C2.94 0.75 2.94 0.75 6 2 C6.88 4.12 6.88 4.12 7 6 C5.68 5.67 4.36 5.34 3 5 C2.67 5.66 2.34 6.32 2 7 C1.34 4.69 0.68 2.38 0 0 Z " fill="#C0E5E6" transform="translate(265,239)"/>
<path d="M0 0 C0.33 0.66 0.66 1.32 1 2 C1.66 2 2.32 2 3 2 C3 2.66 3 3.32 3 4 C3.66 4 4.32 4 5 4 C4.67 4.99 4.34 5.98 4 7 C3.67 6.34 3.34 5.68 3 5 C1.02 5.33 -0.96 5.66 -3 6 C-2.67 5.34 -2.34 4.68 -2 4 C-1.34 4 -0.68 4 0 4 C0 2.68 0 1.36 0 0 Z " fill="#72C5C8" transform="translate(258,246)"/>
<path d="M0 0 C0.66 0 1.32 0 2 0 C2.33 1.65 2.66 3.3 3 5 C1.35 5.33 -0.3 5.66 -2 6 C-1.12 1.12 -1.12 1.12 0 0 Z " fill="#5EBDC0" transform="translate(220,275)"/>
</svg>
